# xmcd
#
# Track frame offsets:
#	150
#	16692
#	36117
#	56855
#	72605
#	85802
#	106427
#	130144
#	153132
#	165432
#	182218
#
# Disc length: 2713 seconds
#
# Revision: 2
# Processed by: cddbd v1.4PL0 Copyright (c) Steve Scherf et al.
# Submitted via: audiograbber 1.80.04
#
DISCID=8a0a970b
DTITLE=Harry Belafonte - Belafonte Sings the Blues
DYEAR=1900
DGENRE=Blues
TTITLE0=A Fool For You (Ray Charles)
TTITLE1=Loosing Hand (Charles Calhoun)
TTITLE2=One For My Baby (Johnny Mercer - Harold Arlen)
TTITLE3=In the Evenin Mama (C. C. Carter)
TTITLE4=Hallelujah I Love Her So (Ray Charles)
TTITLE5=The Way That I Feel (Fred Brooks)
TTITLE6=Cotton Fields (C. C. Carter)
TTITLE7=God Bless the Child (Bessie Smith)
TTITLE8=Mary Ann (Ray Charles)
TTITLE9=Sinners Prayer (Lowell Fulson)
TTITLE10=Fare Thee Well (Fred Brooks)
EXTD=
EXTT0=
EXTT1=
EXTT2=
EXTT3=
EXTT4=
EXTT5=
EXTT6=
EXTT7=
EXTT8=
EXTT9=
EXTT10=
PLAYORDER=
